<svg xmlns="http://www.w3.org/2000/svg" viewBox="0 0 1920 1920">
  <defs>
    <clipPath id="logo">
      <rect x="0" y="0" width="1920" height="1920" />
    </clipPath>
  </defs>
  <g clip-path="url(#logo)">
          <rect fill="none" width="1920" height="1920"/>
    <g transform="scale(4.8)">
      <g fill="none" font-family="none" font-size="none" font-weight="none" stroke-miterlimit="10" stroke-width="none" style="mix-blend-mode:normal" text-anchor="none">
<rect fill="none" height="400" stroke-width="1" width="400"/>
<rect fill="none" height="400" stroke-width="1" width="400"/>
<rect fill="none" height="400" stroke-width="1" width="400"/>
<rect fill="none" height="400" stroke-width="1" width="400"/>
<g fill="#1d1d56" id="symbol" stroke="#1d1d56" stroke-width="1.1258">
<path d="m142.51 260.96c1.4977 3.6292 2.5386 6.8948 3.1227 9.797 0.21129 1.044-0.10253 1.2366-0.94146 0.57794-10.359-8.0911-19.69-17.369-27.993-27.834-7.9699-10.058-15.129-21.878-18.056-34.005-0.13673-0.5593-0.33869-0.58726-0.60591-0.08389-3.0078 5.6488-6.7395 12.363-11.195 20.144-0.06835 0.11808-0.14915 0.20508-0.24234 0.26102-0.10564 0.06215-0.20817 0.09012-0.30762 0.08389-0.07012 2.1e-4 -0.13712-0.02887-0.18488-0.08018-0.04777-0.05131-0.07198-0.12024-0.06679-0.19015 1.305-20.296 6.9166-39.197 16.835-56.703 2.9891-5.276 7.538-11.997 13.647-20.163 2.0694-2.7654 4.2568-5.3102 6.5624-7.6343 0.11996-0.11903 0.1818-0.28461 0.16924-0.45315-0.01256-0.16852-0.09823-0.32312-0.23451-0.42308-13.656-9.9181-18.102-28.263-9.3682-43.047 7.103-12.034 21.682-16.574 34.732-11.754 6.407 2.3677 11.866 6.7519 16.378 13.153 0.15233 0.21518 0.44164 0.28945 0.68978 0.17711 0.98808-0.44744 1.883-1.361 3.2439-1.7804 26.56-8.1843 52.769-7.3143 78.627 2.61 0.31692 0.11808 0.5593 0.03419 0.72709-0.25168 0.32314-0.5593 0.42257-1.1869 0.29829-1.883-0.05594-0.3107 0.02176-0.57794 0.23304-0.80165 2.2558-2.3801 3.7721-3.9741 4.5489-4.782 13.954-14.411 36.951-9.014 44.063 9.3682 5.043 13.013 0.59659 27.377-10.244 36.214-0.35365 0.28179-0.44123 0.78742-0.20508 1.1838 5.0336 8.551 8.0507 17.779 9.0512 27.685 0.55309 5.4811 0.82962 10.384 0.82962 14.709-5.3e-4 0.49173 0.27392 0.93954 0.70844 1.1559 4.3501 2.1688 8.7685 4.9497 13.255 8.3428 2.4174 1.8332 3.536 4.2134 3.3558 7.1403-0.37286 6.1025-2.8586 11.068-7.4572 14.896-0.23614 0.19888-0.50958 0.28275-0.82029 0.25168-3.3806-0.32314-6.1336 0.95702-8.2589 3.8405-1.1497 1.5536-1.0937 3.0637 0.16779 4.5303l1.2491 1.4542c0.69602 0.80787 1.3112 0.75194 1.8457-0.16779l5.3319-9.2377c0.07027-0.12435 0.1957-0.20765 0.33757-0.22425 0.14187-0.01659 0.28312 0.03557 0.38019 0.14034 0.47851 0.50958 0.6152 1.1807 0.41015 2.0134-3.2998 13.087-10.574 23.447-21.822 31.078-10.794 7.3267-24.833 15.036-34.695 21.729-12.913 8.756-25.398 18.932-37.454 30.528-5.3941 5.189-8.4484 8.1222-9.1631 8.7995-0.45503 0.43377-1.1634 0.44995-1.6313 0.03728-15.334-13.442-36.158-29.792-47.111-38.983-2.4112-2.0134-6.5686-5.8819-12.472-11.605-0.38528-0.37286-0.47539-0.3107-0.27033 0.18645zm-14.784-146.14c2.5728-9.3216 12.006-11.736 19.799-7.3547 3.3558 1.8892 6.3418 4.4806 8.958 7.7742 0.11186 0.14915 0.28896 0.27033 0.53133 0.36352 0.26102 0.11186 0.47539 0.18953 0.64318 0.23304 0.08465 0.02147 0.17437-0.00247 0.23707-0.06328 0.06269-0.0608 0.08938-0.14975 0.07053-0.235-1.044-4.7664-3.1538-8.8648-6.3293-12.295-6.4412-6.9632-16.648-8.3055-24.124-2.4236-5.9844 4.6981-8.7405 10.686-8.2682 17.963 0.67114 10.338 7.2708 17.907 18.037 18.755 1.392 0.10564 1.5256-0.25478 0.40083-1.0813-7.2708-5.3599-12.575-12.146-9.9554-21.635zm146.56-9.6478c11.661 3.6261 10.552 17.776 4.1854 25.373-0.27344 0.32314-0.24856 0.62453 0.07457 0.9042l1.9016 1.6313c0.3418 0.29829 0.68047 0.28896 1.016-0.02795 6.8979-6.5437 11.158-16.266 6.6462-25.224-7.6064-15.092-27.321-14.104-31.274 3.132-0.15537 0.67114 0.02485 0.77991 0.54064 0.32626 0.5593-0.50337 1.3796-1.277 2.4609-2.3211 3.2905-3.1973 9.797-5.2387 14.448-3.7939zm-57.635 46.925c5.2946 1.2118 8.2216 3.6541 12.351 7.1217 0.59078 0.50424 1.4412 0.56471 2.0974 0.14915 1.827-1.1559 3.5236-2.7716 5.0896-4.8472 4.6701-6.1988 0.09323-12.472-5.6582-15.259-4.8938-2.3584-11.093-2.1626-16.126-0.02795-11.866 5.043-15.716 14.905-19.1 26.716-0.03592 0.11616-0.00642 0.2423 0.07767 0.33211 0.08407 0.08979 0.21034 0.13006 0.33248 0.10601 0.27344-0.05594 0.57794-0.26724 0.91351-0.63388 3.9337-4.232 13.255-15.203 20.023-13.656zm58.241 0.70846c4.0828-2.7219 9.6292 2.5541 11.493 5.8353 0.02485 0.04351 0.06215 0.07457 0.11186 0.09323 0.09323 0.03106 0.17711 0.02795 0.25168-0.00932 0.13673-0.07457 0.19266-0.18953 0.16779-0.34491-0.94146-6.4505-4.4184-14.076-10.114-17.59-5.0709-3.1414-11.54-3.421-16.21 0.41947-2.4609 2.0321-3.3713 4.6546-2.7312 7.8674 0.9042 4.5582 5.015 7.3827 9.2843 9.508 0.48528 0.24439 1.0758 0.13392 1.4448-0.27033 2.088-2.2682 4.1885-4.1046 6.3014-5.509zm-40.987 43.653c0.38528 6.3635 1.8239 13.032 4.3159 20.004 3.0481 8.5199 6.9818 16.322 13.787 21.812 4.5116 3.6416 9.1165 5.5898 13.815 5.8446 9.8063 0.52201 22.437-3.5795 28.682-12.015 0.18645-0.24856 0.24547-0.52511 0.17711-0.82962-0.10564-0.49714-0.40394-0.87932-0.89487-1.1466-0.48951-0.27115-1.0865-0.26048-1.566 0.02795-3.5329 2.116-7.1403 4.6142-11.149 5.8446-9.0512 2.7871-18.811 2.7312-25.634-4.6608-0.83272-0.90108-1.277-1.6064-1.333-2.116-0.1305-1.2118 0.27655-1.4448 1.2211-0.69911 9.8808 7.7835 23.257 6.6462 32.644-1.2584 2.088-1.7524 3.5888-4.754 1.6499-7.3547-0.40394-0.54064-1.4231-1.0627-3.0575-1.566-5.3599-1.6499-9.797-4.6142-11.4-10.272-0.93837-3.2998-0.54375-6.1305 1.1838-8.492 2.9456-4.0362 6.5158-4.204 12.09-4.9591 4.4433-0.60279 8.8648-0.87932 13.265-0.82962 1.535 0.01865 1.6157-0.31384 0.24234-0.9974-7.2087-3.5981-13.609-7.5847-19.202-11.96-8.321-6.5127-13.771-10.866-16.35-13.06-3.8467-3.275-6.7457-5.2915-8.697-6.0497-11.68-4.5489-16.769 3.0109-22.409 11.447-6.1895 9.2718-10.791 19.165-13.805 29.68-0.29207 1.0067-0.04972 1.1621 0.72709 0.46607 3.3433-2.9891 7.0658-5.3848 11.167-7.1869 0.11167-0.0523 0.24203-0.04452 0.34834 0.02074 0.10629 0.06527 0.17478 0.17962 0.18301 0.30552zm46.375-22.866c0.23565 0.21911 0.59147 0.2462 0.85759 0.06524 1.5225-1.0067 2.7685-2.144 3.738-3.4117 0.36978-0.49033 0.36978-1.1646 0-1.6499-2.3366-3.1445-5.2076-3.5298-8.6131-1.1559-1.0813 0.75194-1.1279 1.5691-0.13982 2.4516zm-59.586-3.1817c-0.0335-1.1293-0.67231-2.1944-1.7759-2.9609-1.1036-0.7665-2.5815-1.1717-4.1087-1.1263-3.1801 0.09437-5.7016 2.0773-5.6318 4.4289 0.0335 1.1293 0.67231 2.1944 1.7759 2.9609 1.1036 0.7665 2.5815 1.1717 4.1087 1.1263 3.1801-0.09437 5.7016-2.0773 5.6318-4.4289zm69.812 34.94c2.1564 1.1931 2.9518 3.3775 2.3863 6.5531-0.0364 0.18827 0.05125 0.37879 0.21785 0.47368 0.16662 0.09491 0.37518 0.0731 0.51856-0.05423l0.79232-0.68047c0.07975-0.07375 0.14055-0.16653 0.17711-0.27033 0.81408-2.2496 1.3454-3.6137 1.594-4.0922 1.5753-2.9456 5.8073-3.0109 8.5386-2.1346 0.22706 0.07514 0.4766 0.02213 0.65515-0.13915 0.17855-0.16126 0.25921-0.4065 0.21175-0.64385l-0.06524-0.32626c-0.13671-0.65251-0.52823-1.0564-1.1745-1.2118-1.3672-0.3418-2.3211-0.49714-2.8617-0.46607-5.7234 0.29207-11.397 0.39461-17.021 0.30762-0.44121-0.00622-0.75506 0.19266-0.94146 0.59659-0.06835 0.14291-0.10564 0.29519-0.11186 0.45676-0.03728 0.57172 0.22993 0.85137 0.80165 0.83893 3.1258-0.06215 5.2201 0.20196 6.2827 0.79232z"/>
</g>
<g fill="#3529b0" id="text" stroke-width="1">
<path d="m133.27 30.51h8.3686l14.422 21.792v-18.649h-3.7383v-3.1436h10.981v3.1436h-3.9082v28.568h-2.8887l-15.951-24.384v21.219h4.0144v3.1648h-11.3v-3.1648h4.0144v-25.403h-4.0144zm47.068 32.2c-2.7046 0-5.0976-0.66552-7.1792-1.9966-2.0957-1.3452-3.7454-3.2427-4.949-5.6924-1.1894-2.4355-1.7842-5.3242-1.7842-8.666 0-3.3276 0.59471-6.2163 1.7842-8.666 1.2036-2.4497 2.8532-4.3401 4.949-5.6711 2.0815-1.3452 4.4746-2.0178 7.1792-2.0178 2.7046 0 5.1047 0.67262 7.2004 2.0178 2.1098 1.331 3.7524 3.2214 4.9277 5.6711 1.1894 2.4497 1.7842 5.3384 1.7842 8.666 0 3.3418-0.59471 6.2304-1.7842 8.666-1.1753 2.4497-2.8179 4.3472-4.9277 5.6924-2.0957 1.331-4.4958 1.9966-7.2004 1.9966zm-8.8359-16.355c0 4.2622 0.83544 7.5261 2.5063 9.7917s3.7807 3.3984 6.3296 3.3984c1.7134 0 3.2285-0.50977 4.5454-1.5293 1.3169-1.0195 2.3577-2.5134 3.1223-4.4817 0.76465-1.9682 1.147-4.3613 1.147-7.1792 0-2.8462-0.38232-5.2463-1.147-7.2004-0.76465-1.9541-1.8054-3.4409-3.1223-4.4604-1.3169-1.0195-2.832-1.5293-4.5454-1.5293-2.5488 0-4.6587 1.1328-6.3296 3.3984-1.6709 2.2656-2.5063 5.5295-2.5063 9.7917zm38.19 15.866h-11.873v-3.1648h3.7383v-25.403h-3.7383v-3.1436h15.442c2.039 0 3.8303 0.36816 5.3737 1.1045 1.5576 0.73633 2.7683 1.77 3.6321 3.1011 0.87793 1.331 1.3169 2.8816 1.3169 4.6516 0 2.0249-0.62304 3.8091-1.8691 5.3525s-2.9382 2.6267-5.0764 3.2497l6.3933 11.087h3.5683v3.1648h-12.341v-3.1648h3.4622l-5.8198-10.493h-5.5862v10.493h3.3772zm-3.3772-28.568v11.852h5.5437c1.9258 0 3.5329-0.53808 4.8215-1.6142 1.2886-1.0903 1.9328-2.563 1.9328-4.418 0-1.8408-0.62304-3.271-1.8691-4.2905-1.2461-1.0195-2.8249-1.5293-4.7366-1.5293zm51.89 1.7204-9.6855 26.848h-2.2939l-9.728-26.996v23.831h3.7383v3.1648h-10.726v-3.1648h3.7383v-25.403h-3.7383v-3.1436h10.28l8.4748 23.364 8.4536-23.364h10.004v3.1436h-3.7383v25.403h3.7383v3.1648h-12.256v-3.1648h3.7383z"/>
<path d="m116.95 366.42h5.6614c2.234 0 3.9546-0.5481 5.1618-1.6443 1.2072-1.1101 1.8108-2.4907 1.8108-4.142 0-1.6374-0.59667-2.9694-1.79-3.9962-1.1933-1.0129-2.9209-1.5194-5.1826-1.5194h-5.6614zm7.4305 3.1013h-15.756v-3.1013h3.6632v-24.893h-3.6632v-3.0804h14.736c3.2053 0 5.6544 0.68684 7.3473 2.0606 1.6929 1.3876 2.5393 3.2123 2.5393 5.474 0 1.3321-0.2914 2.5185-0.87418 3.5592-0.56891 1.0407-1.3321 1.8802-2.2895 2.5185-0.95744 0.6244-2.0051 1.0129-3.1429 1.1656 1.2072 0.08325 2.3797 0.44402 3.5175 1.0823 1.1517 0.63828 2.1022 1.5194 2.8515 2.6434 0.74929 1.1378 1.1239 2.4976 1.1239 4.0795 0 1.6235-0.40241 3.0735-1.2072 4.3501-0.81867 1.2905-1.9773 2.3034-3.4759 3.0388-1.4986 0.73543-3.2886 1.1031-5.37 1.1031zm-7.4305-27.995v10.594h5.3908c2.0952 0 3.6355-0.50646 4.6207-1.5194 0.98519-1.0129 1.4778-2.2548 1.4778-3.7257 0-1.568-0.57584-2.8515-1.7275-3.8506-1.1517-0.99905-2.7682-1.4986-4.8496-1.4986zm24.331 16.776v-16.776h-3.6632v-3.0804h11.989v3.0804h-3.6632v16.589c0 2.5115 0.66604 4.5582 1.9981 6.1401 1.3182 1.5957 3.1706 2.3936 5.5573 2.3936 2.4422 0 4.3085-0.79785 5.5989-2.3936 1.3043-1.5818 1.9565-3.6286 1.9565-6.1401v-16.589h-3.8506v-3.0804h10.719v3.0804h-3.6632v16.589c0 3.5939-0.97825 6.4731-2.9348 8.6377s-4.7525 3.247-8.388 3.247c-2.3589 0-4.4125-0.47872-6.1609-1.4362-1.7484-0.95744-3.1013-2.3173-4.0587-4.0795-0.95744-1.7622-1.4362-3.8228-1.4362-6.1817zm41.482 11.219h-11.656v-3.1013h3.6632v-24.893h-3.6632v-3.0804h15.132c2.012 0 3.7742 0.36078 5.2867 1.0823 1.5125 0.72155 2.6988 1.7345 3.5592 3.0388 0.84643 1.3043 1.2696 2.8237 1.2696 4.5582 0 1.9843-0.61054 3.7326-1.8316 5.2451-1.2211 1.5125-2.8723 2.574-4.9537 3.1845l6.265 10.865h3.4759v3.1013h-12.093v-3.1013h3.3927l-5.6822-10.282h-5.474v10.282h3.3094zm-3.3094-27.995v11.614h5.4324c1.8732 0 3.4482-0.5273 4.7248-1.5818 1.2627-1.0684 1.8941-2.5115 1.8941-4.3293 0-1.8039-0.61054-3.2053-1.8316-4.2044-1.2211-0.99905-2.7752-1.4986-4.6623-1.4986zm46.207 27.995h-23.478v-3.1013h3.6632v-24.893h-3.6632v-3.0804h23.478v10.095h-3.4343v-7.0143h-11.697v10.782h10.678v3.0388h-10.678v11.073h11.697v-7.0143h3.4343zm11.468-27.995v-3.0804h8.5753l9.3038 27.974h3.5383v3.1013h-12.28v-3.1013h3.8089l-2.0398-6.3482h-10.324l-2.0398 6.3482h3.8089v3.1013h-10.782v-3.1013h3.58l8.2215-24.893zm5.7446 2.3936-4.246 13.238h8.4921zm21.855 14.382v-16.776h-3.6632v-3.0804h11.989v3.0804h-3.6632v16.589c0 2.5115 0.66604 4.5582 1.9981 6.1401 1.3182 1.5957 3.1706 2.3936 5.5573 2.3936 2.4422 0 4.3085-0.79785 5.5989-2.3936 1.3043-1.5818 1.9565-3.6286 1.9565-6.1401v-16.589h-3.8506v-3.0804h10.719v3.0804h-3.6632v16.589c0 3.5939-0.97825 6.4731-2.9348 8.6377s-4.7594 3.247-8.4088 3.247c-2.345 0-4.3917-0.47872-6.1401-1.4362-1.7484-0.95744-3.1013-2.3173-4.0587-4.0795-0.95744-1.7622-1.4362-3.8228-1.4362-6.1817z"/>
</g>
</g>
    </g>
  </g>
</svg>